<?xml version="1.0" encoding="utf-8"?>
<!-- Generator: Adobe Illustrator 19.2.0, SVG Export Plug-In . SVG Version: 6.00 Build 0)  -->
<svg version="1.1" id="Layer_1" xmlns="http://www.w3.org/2000/svg" xmlns:xlink="http://www.w3.org/1999/xlink" x="0px" y="0px"
	 viewBox="0 0 18 18" style="enable-background:new 0 0 18 18;" xml:space="preserve">
<style type="text/css">
	.st0{fill:#63BAB6;}
	.st1{fill:#FFFFFF;}
</style>
<g>
	<path class="st0" d="M16,0H2C0.9,0,0,0.9,0,2v14c0,1.1,0.9,2,2,2h14c1.1,0,2-0.9,2-2V2C18,0.9,17.1,0,16,0z"/>
	<path class="st1" d="M14,3.6c0,0-0.1,0.1-0.2,0.2c-0.3,0.3-0.5,0.6-0.4,1c0,0.1,0,0.1,0.1,0.2c0,0.1,0.1,0.2,0.1,0.3
		c0,1.2,0,2.4,0,3.7c0,0.3-0.1,0.4-0.4,0.4s-0.4-0.2-0.4-0.5c0-0.6,0-1.2,0-1.7c0-0.6,0-1.2,0.1-1.8C12.8,5.2,13,5,13,4.9
		c0-0.2,0-0.3,0-0.5c0,0,0,0,0,0c-0.6,0.4-1.1,0.9-1.6,1.3c0.1,0.3,0.2,0.6,0.2,0.9c0.1,0.7-0.2,1.3-0.8,1.8
		c-0.2,0.2-0.4,0.3-0.6,0.5c-0.3,0.3-0.3,0.6,0,0.8c0.3,0.3,0.6,0.6,0.9,0.9c0.6,0.5,0.9,1.2,0.8,2c-0.1,0.9-0.6,1.4-1.3,1.8
		c-0.6,0.3-1.2,0.4-1.8,0.3c-0.9,0-1.8-0.2-2.5-0.6c-0.6-0.4-0.9-1-0.7-1.6c0.1-0.3,0.3-0.7,0.6-0.9c0.6-0.6,1.5-0.9,2.4-0.9
		c0.2,0,0.5,0,0.8,0C8.9,10,8.7,9.6,9,9C8.3,9,7.7,8.9,7.2,8.4C6.6,8,6.4,7.4,6.4,6.6c-0.4,0-0.8,0-1.2,0c-0.4,0-0.8,0-1.2,0
		c0,0,0.1-0.1,0.2-0.2c1.2-1,2.3-1.9,3.5-2.9c0,0,0.1-0.1,0.1-0.1C9.9,3.5,11.9,3.5,14,3.6z M9,14.1c0.5,0,1-0.1,1.5-0.3
		c0.8-0.4,1.1-1.7,0.2-2.4c-0.2-0.1-0.4-0.3-0.6-0.5c0,0-0.1-0.1-0.2-0.1c-0.8-0.2-1.5-0.1-2.2,0.3c-0.9,0.6-1,1.5-0.3,2.3
		C7.7,14,8.3,14.1,9,14.1z M7.5,6.5c0,0,0,0.1,0,0.2c0.1,0.8,0.4,1.4,1,1.8c0.6,0.4,1.2,0.3,1.6-0.3c0.2-0.3,0.3-0.6,0.3-0.9
		c0.1-0.9-0.3-1.9-1.1-2.3C8.8,4.7,8.1,4.9,7.8,5.4C7.6,5.7,7.5,6,7.5,6.5z"/>
</g>
</svg>
